<?xml version="1.0" encoding="utf-8" ?>
<svg baseProfile="full" height="185.17427087581166" version="1.1" width="834.3174492357729" xmlns="http://www.w3.org/2000/svg" xmlns:ev="http://www.w3.org/2001/xml-events" xmlns:xlink="http://www.w3.org/1999/xlink">
  <defs/>
  <g transform="scale(1,-1) translate(111.4048871058092,-180.17427087581166)">
    <line stroke="green" stroke-width="3" x1="-111.4048871058092" x2="722.9125621299637" y1="0" y2="0"/>
    <g>
      <g>
        <polygon fill="#FF0000" id="D28" points="0,0 31.016124838541646,0.0 54.100891350387634,23.729592392065094" stroke="black"/>
        <g transform="scale(1,-1) translate(0,-15.81972826137673)">
          <text fill="#00FFFF" text-anchor="middle" x="28.372338729643094" y="7.909864130688365">28</text>
        </g>
      </g>
      <g>
        <polygon fill="#FF8080" id="D11" points="0,0 49.19108592958419,21.684950197504815 49.434970845558446,70.5208030122941" stroke="black"/>
        <g transform="scale(1,-1) translate(0,-61.47050213986594)">
          <text fill="#00FFFF" text-anchor="middle" x="32.87535225838088" y="30.73525106993297">11</text>
        </g>
      </g>
      <g>
        <polygon fill="#FF8080" id="D3" points="0,0 46.2675578065628,66.00237188629185 5.192520912358094,89.38701094999611" stroke="black"/>
        <g transform="scale(1,-1) translate(0,-103.59292189085863)">
          <text fill="#00FFFF" text-anchor="middle" x="17.15335957297363" y="51.79646094542932">3</text>
        </g>
      </g>
      <g>
        <polygon fill="#FF8080" id="D26" points="0,0 4.721321364042943,81.27551368387303 -70.99038030348967,66.55348153452158" stroke="black"/>
        <g transform="scale(1,-1) translate(0,-98.55266347892973)">
          <text fill="#00FFFF" text-anchor="middle" x="-22.089686313148906" y="49.276331739464865">26</text>
        </g>
      </g>
      <g>
        <polygon fill="#FF8080" id="D2" points="0,0 -61.35056553848458,57.5161551923293 -106.4048871058092,1.303084044077647e-14" stroke="black"/>
        <g transform="scale(1,-1) translate(0,-38.344103461552876)">
          <text fill="#00FFFF" text-anchor="middle" x="-55.91848421476459" y="19.172051730776438">2</text>
        </g>
      </g>
    </g>
    <g>
      <g>
        <polygon fill="#FFFF00" id="D27" points="46.00935189514282,0 73.2122929126137,0.0 60.19899410155332,41.613147610509515" stroke="black"/>
        <g transform="scale(1,-1) translate(0,-27.742098407006342)">
          <text fill="#0000FF" text-anchor="middle" x="59.80687963643661" y="13.871049203503171">27</text>
        </g>
      </g>
    </g>
    <g>
      <g>
        <polygon fill="#FF00FF" id="D8" points="73.91724709339981,0 95.0122702031288,0.0 60.35954684759645,41.09974165423602" stroke="black"/>
        <g transform="scale(1,-1) translate(0,-27.39982776949068)">
          <text fill="#00FF00" text-anchor="middle" x="76.42968804804168" y="13.69991388474534">8</text>
        </g>
      </g>
    </g>
    <g>
      <g>
        <polygon fill="#00FF00" id="D30" points="95.0122702031288,0 128.25381048031812,0.0 70.04351144288705,40.762250747141664" stroke="black"/>
        <g transform="scale(1,-1) translate(0,-27.174833831427776)">
          <text fill="#FF00FF" text-anchor="middle" x="97.76986404211134" y="13.587416915713888">30</text>
        </g>
      </g>
    </g>
    <g>
      <g>
        <polygon fill="#00FFFF" id="D25" points="128.25381048031812,0 156.0566880292338,0.0 83.40233790140758,38.44925756764668" stroke="black"/>
        <g transform="scale(1,-1) translate(0,-25.63283837843112)">
          <text fill="#FF0000" text-anchor="middle" x="122.57094547031984" y="12.81641918921556">25</text>
        </g>
      </g>
    </g>
    <g>
      <g>
        <polygon fill="#FF0000" id="D33" points="156.0566880292338,0 218.04055689848076,0.0 182.17638706601434,60.3221462004462" stroke="black"/>
        <g transform="scale(1,-1) translate(0,-40.2147641336308)">
          <text fill="#00FFFF" text-anchor="middle" x="185.42454399790964" y="20.1073820668154">33</text>
        </g>
      </g>
      <g>
        <polygon fill="#FF8080" id="D19" points="156.0566880292338,0 182.05824575151487,60.0493047088381 146.6437715582206,90.75459769901319" stroke="black"/>
        <g transform="scale(1,-1) translate(0,-100.53593493856754)">
          <text fill="#00FFFF" text-anchor="middle" x="161.58623511298978" y="50.26796746928377">19</text>
        </g>
      </g>
      <g>
        <polygon fill="#FF8080" id="D18" points="156.0566880292338,0 148.70008092225234,70.92869892979505 96.09592713670109,80.19169005070611" stroke="black"/>
        <g transform="scale(1,-1) translate(0,-100.74692598700078)">
          <text fill="#00FFFF" text-anchor="middle" x="133.6175653627291" y="50.37346299350039">18</text>
        </g>
      </g>
      <g>
        <polygon fill="#FF8080" id="D24" points="156.0566880292338,0 89.45455550363286,89.07387912874508 53.318725173168374,54.38668024604662" stroke="black"/>
        <g transform="scale(1,-1) translate(0,-95.6403729165278)">
          <text fill="#00FFFF" text-anchor="middle" x="99.60998956867836" y="47.8201864582639">24</text>
        </g>
      </g>
    </g>
    <g>
      <g>
        <polygon fill="#FFFF00" id="D31" points="218.04055689848076,0 253.16889303898137,0.0 227.60548472928156,76.46248855217551" stroke="black"/>
        <g transform="scale(1,-1) translate(0,-50.97499236811701)">
          <text fill="#0000FF" text-anchor="middle" x="232.93831155558124" y="25.487496184058504">31</text>
        </g>
      </g>
      <g>
        <polygon fill="#FFFF80" id="D17" points="218.04055689848076,0 226.92103051774873,71.31715914348725 202.88145171381157,93.11391695122774" stroke="black"/>
        <g transform="scale(1,-1) translate(0,-109.62071739647665)">
          <text fill="#0000FF" text-anchor="middle" x="215.94767971001366" y="54.810358698238325">17</text>
        </g>
      </g>
      <g>
        <polygon fill="#FFFF80" id="D37" points="218.04055689848076,0 205.99444977682393,73.99250842628307 179.09935837317016,113.51027732065651" stroke="black"/>
        <g transform="scale(1,-1) translate(0,-125.0018571646264)">
          <text fill="#0000FF" text-anchor="middle" x="201.0447883494916" y="62.5009285823132">37</text>
        </g>
      </g>
      <g>
        <polygon fill="#FFFF80" id="D34" points="218.04055689848076,0 178.02050975837625,116.6550291539281 113.89174594450125,175.17427087581166" stroke="black"/>
        <g transform="scale(1,-1) translate(0,-194.5528666864932)">
          <text fill="#0000FF" text-anchor="middle" x="169.98427086711942" y="97.2764333432466">34</text>
        </g>
      </g>
    </g>
    <g>
      <g>
        <polygon fill="#FF00FF" id="D15" points="253.16889303898137,0 290.8119534884188,0.0 245.2789925778078,63.46455286782357" stroke="black"/>
        <g transform="scale(1,-1) translate(0,-42.30970191188238)">
          <text fill="#00FF00" text-anchor="middle" x="263.0866130350693" y="21.15485095594119">15</text>
        </g>
      </g>
    </g>
    <g>
      <g>
        <polygon fill="#00FF00" id="D14" points="290.81195348841885,0 361.5226316070736,0.0 326.16729254774623,63.63961030678929" stroke="black"/>
        <g transform="scale(1,-1) translate(0,-42.42640687119286)">
          <text fill="#FF00FF" text-anchor="middle" x="326.16729254774623" y="21.21320343559643">14</text>
        </g>
      </g>
      <g>
        <polygon fill="#80FF80" id="D1" points="290.81195348841885,0 318.9672343298539,50.766919945373076 310.0883541034457,107.31924514889673" stroke="black"/>
        <g transform="scale(1,-1) translate(0,-105.3907767295132)">
          <text fill="#FF00FF" text-anchor="middle" x="306.6225139739061" y="52.6953883647566">1</text>
        </g>
      </g>
      <g>
        <polygon fill="#80FF80" id="D16" points="290.81195348841885,0 307.3139745477217,91.87319141598557 284.4248864512216,105.02954524638459" stroke="black"/>
        <g transform="scale(1,-1) translate(0,-131.26849110824676)">
          <text fill="#FF00FF" text-anchor="middle" x="294.1836048291207" y="65.63424555412338">16</text>
        </g>
      </g>
      <g>
        <polygon fill="#80FF80" id="D4" points="290.81195348841885,0 284.5625096650505,102.76645586911404 222.97993944937144,94.54532178487983" stroke="black"/>
        <g transform="scale(1,-1) translate(0,-131.54118510266258)">
          <text fill="#FF00FF" text-anchor="middle" x="266.11813420094694" y="65.77059255133129">4</text>
        </g>
      </g>
    </g>
    <g>
      <g>
        <polygon fill="#00FFFF" id="D32" points="361.5226316070736,0 432.402812193751,0.0 395.3261572212613,69.35648243712303" stroke="black"/>
        <g transform="scale(1,-1) translate(0,-46.237654958082025)">
          <text fill="#FF0000" text-anchor="middle" x="396.4172003406953" y="23.118827479041013">32</text>
        </g>
      </g>
      <g>
        <polygon fill="#80FFFF" id="D6" points="361.5226316070736,0 387.4051642585081,53.104561984328875 350.20088226455,97.43109355757568" stroke="black"/>
        <g transform="scale(1,-1) translate(0,-100.35710369460304)">
          <text fill="#FF0000" text-anchor="middle" x="366.37622604337724" y="50.17855184730152">6</text>
        </g>
      </g>
      <g>
        <polygon fill="#80FFFF" id="D29" points="361.5226316070736,0 348.59492608119444,111.25140192301467 325.7453911148408,65.30688373181603" stroke="black"/>
        <g transform="scale(1,-1) translate(0,-117.70552376988712)">
          <text fill="#FF0000" text-anchor="middle" x="345.28764960103626" y="58.85276188494356">29</text>
        </g>
      </g>
    </g>
    <g>
      <g>
        <polygon fill="#FF0000" id="D35" points="432.402812193751,0 482.69197603647166,0.0 444.45312191644325,65.38187849539955" stroke="black"/>
        <g transform="scale(1,-1) translate(0,-43.587918996933034)">
          <text fill="#00FFFF" text-anchor="middle" x="453.18263671555525" y="21.793959498466517">35</text>
        </g>
      </g>
      <g>
        <polygon fill="#FF8080" id="D20" points="432.402812193751,0 447.4313514330815,83.6847836128642 385.8633226782576,87.05788830219394" stroke="black"/>
        <g transform="scale(1,-1) translate(0,-113.8284479433721)">
          <text fill="#00FFFF" text-anchor="middle" x="421.8991621016967" y="56.91422397168605">20</text>
        </g>
      </g>
    </g>
    <g>
      <g>
        <polygon fill="#FFFF00" id="D22" points="482.69197603647166,0 551.10250154242,0.0 516.546415581723,74.72534324495889" stroke="black"/>
        <g transform="scale(1,-1) translate(0,-49.81689549663926)">
          <text fill="#0000FF" text-anchor="middle" x="516.7802977202049" y="24.90844774831963">22</text>
        </g>
      </g>
      <g>
        <polygon fill="#FFFF80" id="D5" points="482.69197603647166,0 509.63936520612816,59.47972946255791 473.459255476492,90.80064356083236" stroke="black"/>
        <g transform="scale(1,-1) translate(0,-100.18691534892685)">
          <text fill="#0000FF" text-anchor="middle" x="488.5968655730306" y="50.09345767446342">5</text>
        </g>
      </g>
      <g>
        <polygon fill="#FFFF80" id="D10" points="482.69197603647166,0 472.03126859876494,104.84440527242084 448.7464895977555,59.47019379856548" stroke="black"/>
        <g transform="scale(1,-1) translate(0,-109.54306604732422)">
          <text fill="#0000FF" text-anchor="middle" x="467.8232447443307" y="54.77153302366211">10</text>
        </g>
      </g>
    </g>
    <g>
      <g>
        <polygon fill="#FF00FF" id="D36" points="551.10250154242,0 595.4871835847642,0.0 569.4421620411348,70.33958240416186" stroke="black"/>
        <g transform="scale(1,-1) translate(0,-46.89305493610791)">
          <text fill="#00FF00" text-anchor="middle" x="572.010615722773" y="23.446527468053954">36</text>
        </g>
      </g>
      <g>
        <polygon fill="#FF80FF" id="D12" points="551.10250154242,0 568.6502672226767,74.00726937018285 512.7203916066634,82.99887732300655" stroke="black"/>
        <g transform="scale(1,-1) translate(0,-104.67076446212627)">
          <text fill="#00FF00" text-anchor="middle" x="544.1577201239201" y="52.335382231063136">12</text>
        </g>
      </g>
    </g>
    <g>
      <g>
        <polygon fill="#00FF00" id="D9" points="595.4871835847642,0 656.781555267652,0.0 620.4160629915922,65.60145555946018" stroke="black"/>
        <g transform="scale(1,-1) translate(0,-43.73430370630678)">
          <text fill="#FF00FF" text-anchor="middle" x="624.2282672813362" y="21.86715185315339">9</text>
        </g>
      </g>
      <g>
        <polygon fill="#80FF80" id="D23" points="595.4871835847642,0 616.6754464950363,64.73837744989589 559.6663491997109,98.78192053183915" stroke="black"/>
        <g transform="scale(1,-1) translate(0,-109.01353198782336)">
          <text fill="#FF00FF" text-anchor="middle" x="590.6096597598372" y="54.50676599391168">23</text>
        </g>
      </g>
    </g>
    <g>
      <g>
        <polygon fill="#00FFFF" id="D13" points="656.781555267652,0 717.9125621299637,0.0 697.808198353196,75.47724529373997" stroke="black"/>
        <g transform="scale(1,-1) translate(0,-50.31816352915998)">
          <text fill="#FF0000" text-anchor="middle" x="690.8341052502706" y="25.15908176457999">13</text>
        </g>
      </g>
      <g>
        <polygon fill="#80FFFF" id="D7" points="656.781555267652,0 706.4993583447183,99.65008809424135 658.390770643751,89.87441474565121" stroke="black"/>
        <g transform="scale(1,-1) translate(0,-126.34966855992838)">
          <text fill="#FF0000" text-anchor="middle" x="673.8905614187071" y="63.17483427996419">7</text>
        </g>
      </g>
      <g>
        <polygon fill="#80FFFF" id="D21" points="656.781555267652,0 658.7974512531958,112.58746006272398 619.9217084329629,66.49324545638642" stroke="black"/>
        <g transform="scale(1,-1) translate(0,-119.38713701274025)">
          <text fill="#FF0000" text-anchor="middle" x="645.1669049846037" y="59.69356850637013">21</text>
        </g>
      </g>
    </g>
  </g>
</svg>
